<?xml version="1.0" encoding="utf-8" standalone="no"?>
<!DOCTYPE svg PUBLIC "-//W3C//DTD SVG 1.1//EN"
  "http://www.w3.org/Graphics/SVG/1.1/DTD/svg11.dtd">
<!-- Created with matplotlib (https://matplotlib.org/) -->
<svg height="288pt" version="1.1" viewBox="0 0 432 288" width="432pt" xmlns="http://www.w3.org/2000/svg" xmlns:xlink="http://www.w3.org/1999/xlink">
 <defs>
  <style type="text/css">
*{stroke-linecap:butt;stroke-linejoin:round;}
  </style>
 </defs>
 <g id="figure_1">
  <g id="patch_1">
   <path d="M 0 288 
L 432 288 
L 432 0 
L 0 0 
z
" style="fill:#ffffff;"/>
  </g>
  <g id="axes_1">
   <g id="patch_2">
    <path d="M 54 252 
L 388.8 252 
L 388.8 34.56 
L 54 34.56 
z
" style="fill:#ffffff;"/>
   </g>
   <g id="patch_3">
    <path clip-path="url(#p9153bf5f64)" d="M 54 35.839059 
L 372.857143 35.839059 
L 372.857143 46.071529 
L 54 46.071529 
z
" style="fill:#759adc;"/>
   </g>
   <g id="patch_4">
    <path clip-path="url(#p9153bf5f64)" d="M 54 48.629647 
L 348.533782 48.629647 
L 348.533782 58.862118 
L 54 58.862118 
z
" style="fill:#759adc;"/>
   </g>
   <g id="patch_5">
    <path clip-path="url(#p9153bf5f64)" d="M 54 61.420235 
L 281.357083 61.420235 
L 281.357083 71.652706 
L 54 71.652706 
z
" style="fill:#759adc;"/>
   </g>
   <g id="patch_6">
    <path clip-path="url(#p9153bf5f64)" d="M 54 74.210824 
L 279.234317 74.210824 
L 279.234317 84.443294 
L 54 84.443294 
z
" style="fill:#759adc;"/>
   </g>
   <g id="patch_7">
    <path clip-path="url(#p9153bf5f64)" d="M 54 87.001412 
L 269.99144 87.001412 
L 269.99144 97.233882 
L 54 97.233882 
z
" style="fill:#759adc;"/>
   </g>
   <g id="patch_8">
    <path clip-path="url(#p9153bf5f64)" d="M 54 99.792 
L 264.463404 99.792 
L 264.463404 110.024471 
L 54 110.024471 
z
" style="fill:#759adc;"/>
   </g>
   <g id="patch_9">
    <path clip-path="url(#p9153bf5f64)" d="M 54 112.582588 
L 261.279255 112.582588 
L 261.279255 122.815059 
L 54 122.815059 
z
" style="fill:#759adc;"/>
   </g>
   <g id="patch_10">
    <path clip-path="url(#p9153bf5f64)" d="M 54 125.373176 
L 261.146582 125.373176 
L 261.146582 135.605647 
L 54 135.605647 
z
" style="fill:#759adc;"/>
   </g>
   <g id="patch_11">
    <path clip-path="url(#p9153bf5f64)" d="M 54 138.163765 
L 238.592193 138.163765 
L 238.592193 148.396235 
L 54 148.396235 
z
" style="fill:#759adc;"/>
   </g>
   <g id="patch_12">
    <path clip-path="url(#p9153bf5f64)" d="M 54 150.954353 
L 228.287933 150.954353 
L 228.287933 161.186824 
L 54 161.186824 
z
" style="fill:#759adc;"/>
   </g>
   <g id="patch_13">
    <path clip-path="url(#p9153bf5f64)" d="M 54 163.744941 
L 218.823935 163.744941 
L 218.823935 173.977412 
L 54 173.977412 
z
" style="fill:#759adc;"/>
   </g>
   <g id="patch_14">
    <path clip-path="url(#p9153bf5f64)" d="M 54 176.535529 
L 206.662255 176.535529 
L 206.662255 186.768 
L 54 186.768 
z
" style="fill:#759adc;"/>
   </g>
   <g id="patch_15">
    <path clip-path="url(#p9153bf5f64)" d="M 54 189.326118 
L 202.151377 189.326118 
L 202.151377 199.558588 
L 54 199.558588 
z
" style="fill:#759adc;"/>
   </g>
   <g id="patch_16">
    <path clip-path="url(#p9153bf5f64)" d="M 54 202.116706 
L 190.74151 202.116706 
L 190.74151 212.349176 
L 54 212.349176 
z
" style="fill:#759adc;"/>
   </g>
   <g id="patch_17">
    <path clip-path="url(#p9153bf5f64)" d="M 54 214.907294 
L 147.313255 214.907294 
L 147.313255 225.139765 
L 54 225.139765 
z
" style="fill:#759adc;"/>
   </g>
   <g id="patch_18">
    <path clip-path="url(#p9153bf5f64)" d="M 54 227.697882 
L 127.766118 227.697882 
L 127.766118 237.930353 
L 54 237.930353 
z
" style="fill:#759adc;"/>
   </g>
   <g id="patch_19">
    <path clip-path="url(#p9153bf5f64)" d="M 54 240.488471 
L 107.776739 240.488471 
L 107.776739 250.720941 
L 54 250.720941 
z
" style="fill:#759adc;"/>
   </g>
   <g id="matplotlib.axis_1">
    <g id="xtick_1">
     <g id="line2d_1">
      <defs>
       <path d="M 0 0 
L 0 3.5 
" id="mec52f6dc20" style="stroke:#000000;stroke-width:0.8;"/>
      </defs>
      <g>
       <use style="stroke:#000000;stroke-width:0.8;" x="54" xlink:href="#mec52f6dc20" y="252"/>
      </g>
     </g>
     <g id="text_1">
      <!-- 0 -->
      <defs>
       <path d="M 31.78125 66.40625 
Q 24.171875 66.40625 20.328125 58.90625 
Q 16.5 51.421875 16.5 36.375 
Q 16.5 21.390625 20.328125 13.890625 
Q 24.171875 6.390625 31.78125 6.390625 
Q 39.453125 6.390625 43.28125 13.890625 
Q 47.125 21.390625 47.125 36.375 
Q 47.125 51.421875 43.28125 58.90625 
Q 39.453125 66.40625 31.78125 66.40625 
z
M 31.78125 74.21875 
Q 44.046875 74.21875 50.515625 64.515625 
Q 56.984375 54.828125 56.984375 36.375 
Q 56.984375 17.96875 50.515625 8.265625 
Q 44.046875 -1.421875 31.78125 -1.421875 
Q 19.53125 -1.421875 13.0625 8.265625 
Q 6.59375 17.96875 6.59375 36.375 
Q 6.59375 54.828125 13.0625 64.515625 
Q 19.53125 74.21875 31.78125 74.21875 
z
" id="DejaVuSans-48"/>
      </defs>
      <g transform="translate(51.455 265.07875)scale(0.08 -0.08)">
       <use xlink:href="#DejaVuSans-48"/>
      </g>
     </g>
    </g>
    <g id="xtick_2">
     <g id="line2d_2">
      <g>
       <use style="stroke:#000000;stroke-width:0.8;" x="98.224292" xlink:href="#mec52f6dc20" y="252"/>
      </g>
     </g>
     <g id="text_2">
      <!-- 1000 -->
      <defs>
       <path d="M 12.40625 8.296875 
L 28.515625 8.296875 
L 28.515625 63.921875 
L 10.984375 60.40625 
L 10.984375 69.390625 
L 28.421875 72.90625 
L 38.28125 72.90625 
L 38.28125 8.296875 
L 54.390625 8.296875 
L 54.390625 0 
L 12.40625 0 
z
" id="DejaVuSans-49"/>
      </defs>
      <g transform="translate(88.044292 265.07875)scale(0.08 -0.08)">
       <use xlink:href="#DejaVuSans-49"/>
       <use x="63.623047" xlink:href="#DejaVuSans-48"/>
       <use x="127.246094" xlink:href="#DejaVuSans-48"/>
       <use x="190.869141" xlink:href="#DejaVuSans-48"/>
      </g>
     </g>
    </g>
    <g id="xtick_3">
     <g id="line2d_3">
      <g>
       <use style="stroke:#000000;stroke-width:0.8;" x="142.448583" xlink:href="#mec52f6dc20" y="252"/>
      </g>
     </g>
     <g id="text_3">
      <!-- 2000 -->
      <defs>
       <path d="M 19.1875 8.296875 
L 53.609375 8.296875 
L 53.609375 0 
L 7.328125 0 
L 7.328125 8.296875 
Q 12.9375 14.109375 22.625 23.890625 
Q 32.328125 33.6875 34.8125 36.53125 
Q 39.546875 41.84375 41.421875 45.53125 
Q 43.3125 49.21875 43.3125 52.78125 
Q 43.3125 58.59375 39.234375 62.25 
Q 35.15625 65.921875 28.609375 65.921875 
Q 23.96875 65.921875 18.8125 64.3125 
Q 13.671875 62.703125 7.8125 59.421875 
L 7.8125 69.390625 
Q 13.765625 71.78125 18.9375 73 
Q 24.125 74.21875 28.421875 74.21875 
Q 39.75 74.21875 46.484375 68.546875 
Q 53.21875 62.890625 53.21875 53.421875 
Q 53.21875 48.921875 51.53125 44.890625 
Q 49.859375 40.875 45.40625 35.40625 
Q 44.1875 33.984375 37.640625 27.21875 
Q 31.109375 20.453125 19.1875 8.296875 
z
" id="DejaVuSans-50"/>
      </defs>
      <g transform="translate(132.268583 265.07875)scale(0.08 -0.08)">
       <use xlink:href="#DejaVuSans-50"/>
       <use x="63.623047" xlink:href="#DejaVuSans-48"/>
       <use x="127.246094" xlink:href="#DejaVuSans-48"/>
       <use x="190.869141" xlink:href="#DejaVuSans-48"/>
      </g>
     </g>
    </g>
    <g id="xtick_4">
     <g id="line2d_4">
      <g>
       <use style="stroke:#000000;stroke-width:0.8;" x="186.672875" xlink:href="#mec52f6dc20" y="252"/>
      </g>
     </g>
     <g id="text_4">
      <!-- 3000 -->
      <defs>
       <path d="M 40.578125 39.3125 
Q 47.65625 37.796875 51.625 33 
Q 55.609375 28.21875 55.609375 21.1875 
Q 55.609375 10.40625 48.1875 4.484375 
Q 40.765625 -1.421875 27.09375 -1.421875 
Q 22.515625 -1.421875 17.65625 -0.515625 
Q 12.796875 0.390625 7.625 2.203125 
L 7.625 11.71875 
Q 11.71875 9.328125 16.59375 8.109375 
Q 21.484375 6.890625 26.8125 6.890625 
Q 36.078125 6.890625 40.9375 10.546875 
Q 45.796875 14.203125 45.796875 21.1875 
Q 45.796875 27.640625 41.28125 31.265625 
Q 36.765625 34.90625 28.71875 34.90625 
L 20.21875 34.90625 
L 20.21875 43.015625 
L 29.109375 43.015625 
Q 36.375 43.015625 40.234375 45.921875 
Q 44.09375 48.828125 44.09375 54.296875 
Q 44.09375 59.90625 40.109375 62.90625 
Q 36.140625 65.921875 28.71875 65.921875 
Q 24.65625 65.921875 20.015625 65.03125 
Q 15.375 64.15625 9.8125 62.3125 
L 9.8125 71.09375 
Q 15.4375 72.65625 20.34375 73.4375 
Q 25.25 74.21875 29.59375 74.21875 
Q 40.828125 74.21875 47.359375 69.109375 
Q 53.90625 64.015625 53.90625 55.328125 
Q 53.90625 49.265625 50.4375 45.09375 
Q 46.96875 40.921875 40.578125 39.3125 
z
" id="DejaVuSans-51"/>
      </defs>
      <g transform="translate(176.492875 265.07875)scale(0.08 -0.08)">
       <use xlink:href="#DejaVuSans-51"/>
       <use x="63.623047" xlink:href="#DejaVuSans-48"/>
       <use x="127.246094" xlink:href="#DejaVuSans-48"/>
       <use x="190.869141" xlink:href="#DejaVuSans-48"/>
      </g>
     </g>
    </g>
    <g id="xtick_5">
     <g id="line2d_5">
      <g>
       <use style="stroke:#000000;stroke-width:0.8;" x="230.897167" xlink:href="#mec52f6dc20" y="252"/>
      </g>
     </g>
     <g id="text_5">
      <!-- 4000 -->
      <defs>
       <path d="M 37.796875 64.3125 
L 12.890625 25.390625 
L 37.796875 25.390625 
z
M 35.203125 72.90625 
L 47.609375 72.90625 
L 47.609375 25.390625 
L 58.015625 25.390625 
L 58.015625 17.1875 
L 47.609375 17.1875 
L 47.609375 0 
L 37.796875 0 
L 37.796875 17.1875 
L 4.890625 17.1875 
L 4.890625 26.703125 
z
" id="DejaVuSans-52"/>
      </defs>
      <g transform="translate(220.717167 265.07875)scale(0.08 -0.08)">
       <use xlink:href="#DejaVuSans-52"/>
       <use x="63.623047" xlink:href="#DejaVuSans-48"/>
       <use x="127.246094" xlink:href="#DejaVuSans-48"/>
       <use x="190.869141" xlink:href="#DejaVuSans-48"/>
      </g>
     </g>
    </g>
    <g id="xtick_6">
     <g id="line2d_6">
      <g>
       <use style="stroke:#000000;stroke-width:0.8;" x="275.121458" xlink:href="#mec52f6dc20" y="252"/>
      </g>
     </g>
     <g id="text_6">
      <!-- 5000 -->
      <defs>
       <path d="M 10.796875 72.90625 
L 49.515625 72.90625 
L 49.515625 64.59375 
L 19.828125 64.59375 
L 19.828125 46.734375 
Q 21.96875 47.46875 24.109375 47.828125 
Q 26.265625 48.1875 28.421875 48.1875 
Q 40.625 48.1875 47.75 41.5 
Q 54.890625 34.8125 54.890625 23.390625 
Q 54.890625 11.625 47.5625 5.09375 
Q 40.234375 -1.421875 26.90625 -1.421875 
Q 22.3125 -1.421875 17.546875 -0.640625 
Q 12.796875 0.140625 7.71875 1.703125 
L 7.71875 11.625 
Q 12.109375 9.234375 16.796875 8.0625 
Q 21.484375 6.890625 26.703125 6.890625 
Q 35.15625 6.890625 40.078125 11.328125 
Q 45.015625 15.765625 45.015625 23.390625 
Q 45.015625 31 40.078125 35.4375 
Q 35.15625 39.890625 26.703125 39.890625 
Q 22.75 39.890625 18.8125 39.015625 
Q 14.890625 38.140625 10.796875 36.28125 
z
" id="DejaVuSans-53"/>
      </defs>
      <g transform="translate(264.941458 265.07875)scale(0.08 -0.08)">
       <use xlink:href="#DejaVuSans-53"/>
       <use x="63.623047" xlink:href="#DejaVuSans-48"/>
       <use x="127.246094" xlink:href="#DejaVuSans-48"/>
       <use x="190.869141" xlink:href="#DejaVuSans-48"/>
      </g>
     </g>
    </g>
    <g id="xtick_7">
     <g id="line2d_7">
      <g>
       <use style="stroke:#000000;stroke-width:0.8;" x="319.34575" xlink:href="#mec52f6dc20" y="252"/>
      </g>
     </g>
     <g id="text_7">
      <!-- 6000 -->
      <defs>
       <path d="M 33.015625 40.375 
Q 26.375 40.375 22.484375 35.828125 
Q 18.609375 31.296875 18.609375 23.390625 
Q 18.609375 15.53125 22.484375 10.953125 
Q 26.375 6.390625 33.015625 6.390625 
Q 39.65625 6.390625 43.53125 10.953125 
Q 47.40625 15.53125 47.40625 23.390625 
Q 47.40625 31.296875 43.53125 35.828125 
Q 39.65625 40.375 33.015625 40.375 
z
M 52.59375 71.296875 
L 52.59375 62.3125 
Q 48.875 64.0625 45.09375 64.984375 
Q 41.3125 65.921875 37.59375 65.921875 
Q 27.828125 65.921875 22.671875 59.328125 
Q 17.53125 52.734375 16.796875 39.40625 
Q 19.671875 43.65625 24.015625 45.921875 
Q 28.375 48.1875 33.59375 48.1875 
Q 44.578125 48.1875 50.953125 41.515625 
Q 57.328125 34.859375 57.328125 23.390625 
Q 57.328125 12.15625 50.6875 5.359375 
Q 44.046875 -1.421875 33.015625 -1.421875 
Q 20.359375 -1.421875 13.671875 8.265625 
Q 6.984375 17.96875 6.984375 36.375 
Q 6.984375 53.65625 15.1875 63.9375 
Q 23.390625 74.21875 37.203125 74.21875 
Q 40.921875 74.21875 44.703125 73.484375 
Q 48.484375 72.75 52.59375 71.296875 
z
" id="DejaVuSans-54"/>
      </defs>
      <g transform="translate(309.16575 265.07875)scale(0.08 -0.08)">
       <use xlink:href="#DejaVuSans-54"/>
       <use x="63.623047" xlink:href="#DejaVuSans-48"/>
       <use x="127.246094" xlink:href="#DejaVuSans-48"/>
       <use x="190.869141" xlink:href="#DejaVuSans-48"/>
      </g>
     </g>
    </g>
    <g id="xtick_8">
     <g id="line2d_8">
      <g>
       <use style="stroke:#000000;stroke-width:0.8;" x="363.570042" xlink:href="#mec52f6dc20" y="252"/>
      </g>
     </g>
     <g id="text_8">
      <!-- 7000 -->
      <defs>
       <path d="M 8.203125 72.90625 
L 55.078125 72.90625 
L 55.078125 68.703125 
L 28.609375 0 
L 18.3125 0 
L 43.21875 64.59375 
L 8.203125 64.59375 
z
" id="DejaVuSans-55"/>
      </defs>
      <g transform="translate(353.390042 265.07875)scale(0.08 -0.08)">
       <use xlink:href="#DejaVuSans-55"/>
       <use x="63.623047" xlink:href="#DejaVuSans-48"/>
       <use x="127.246094" xlink:href="#DejaVuSans-48"/>
       <use x="190.869141" xlink:href="#DejaVuSans-48"/>
      </g>
     </g>
    </g>
    <g id="text_9">
     <!-- Document Count -->
     <defs>
      <path d="M 19.671875 64.796875 
L 19.671875 8.109375 
L 31.59375 8.109375 
Q 46.6875 8.109375 53.6875 14.9375 
Q 60.6875 21.78125 60.6875 36.53125 
Q 60.6875 51.171875 53.6875 57.984375 
Q 46.6875 64.796875 31.59375 64.796875 
z
M 9.8125 72.90625 
L 30.078125 72.90625 
Q 51.265625 72.90625 61.171875 64.09375 
Q 71.09375 55.28125 71.09375 36.53125 
Q 71.09375 17.671875 61.125 8.828125 
Q 51.171875 0 30.078125 0 
L 9.8125 0 
z
" id="DejaVuSans-68"/>
      <path d="M 30.609375 48.390625 
Q 23.390625 48.390625 19.1875 42.75 
Q 14.984375 37.109375 14.984375 27.296875 
Q 14.984375 17.484375 19.15625 11.84375 
Q 23.34375 6.203125 30.609375 6.203125 
Q 37.796875 6.203125 41.984375 11.859375 
Q 46.1875 17.53125 46.1875 27.296875 
Q 46.1875 37.015625 41.984375 42.703125 
Q 37.796875 48.390625 30.609375 48.390625 
z
M 30.609375 56 
Q 42.328125 56 49.015625 48.375 
Q 55.71875 40.765625 55.71875 27.296875 
Q 55.71875 13.875 49.015625 6.21875 
Q 42.328125 -1.421875 30.609375 -1.421875 
Q 18.84375 -1.421875 12.171875 6.21875 
Q 5.515625 13.875 5.515625 27.296875 
Q 5.515625 40.765625 12.171875 48.375 
Q 18.84375 56 30.609375 56 
z
" id="DejaVuSans-111"/>
      <path d="M 48.78125 52.59375 
L 48.78125 44.1875 
Q 44.96875 46.296875 41.140625 47.34375 
Q 37.3125 48.390625 33.40625 48.390625 
Q 24.65625 48.390625 19.8125 42.84375 
Q 14.984375 37.3125 14.984375 27.296875 
Q 14.984375 17.28125 19.8125 11.734375 
Q 24.65625 6.203125 33.40625 6.203125 
Q 37.3125 6.203125 41.140625 7.25 
Q 44.96875 8.296875 48.78125 10.40625 
L 48.78125 2.09375 
Q 45.015625 0.34375 40.984375 -0.53125 
Q 36.96875 -1.421875 32.421875 -1.421875 
Q 20.0625 -1.421875 12.78125 6.34375 
Q 5.515625 14.109375 5.515625 27.296875 
Q 5.515625 40.671875 12.859375 48.328125 
Q 20.21875 56 33.015625 56 
Q 37.15625 56 41.109375 55.140625 
Q 45.0625 54.296875 48.78125 52.59375 
z
" id="DejaVuSans-99"/>
      <path d="M 8.5 21.578125 
L 8.5 54.6875 
L 17.484375 54.6875 
L 17.484375 21.921875 
Q 17.484375 14.15625 20.5 10.265625 
Q 23.53125 6.390625 29.59375 6.390625 
Q 36.859375 6.390625 41.078125 11.03125 
Q 45.3125 15.671875 45.3125 23.6875 
L 45.3125 54.6875 
L 54.296875 54.6875 
L 54.296875 0 
L 45.3125 0 
L 45.3125 8.40625 
Q 42.046875 3.421875 37.71875 1 
Q 33.40625 -1.421875 27.6875 -1.421875 
Q 18.265625 -1.421875 13.375 4.4375 
Q 8.5 10.296875 8.5 21.578125 
z
M 31.109375 56 
z
" id="DejaVuSans-117"/>
      <path d="M 52 44.1875 
Q 55.375 50.25 60.0625 53.125 
Q 64.75 56 71.09375 56 
Q 79.640625 56 84.28125 50.015625 
Q 88.921875 44.046875 88.921875 33.015625 
L 88.921875 0 
L 79.890625 0 
L 79.890625 32.71875 
Q 79.890625 40.578125 77.09375 44.375 
Q 74.3125 48.1875 68.609375 48.1875 
Q 61.625 48.1875 57.5625 43.546875 
Q 53.515625 38.921875 53.515625 30.90625 
L 53.515625 0 
L 44.484375 0 
L 44.484375 32.71875 
Q 44.484375 40.625 41.703125 44.40625 
Q 38.921875 48.1875 33.109375 48.1875 
Q 26.21875 48.1875 22.15625 43.53125 
Q 18.109375 38.875 18.109375 30.90625 
L 18.109375 0 
L 9.078125 0 
L 9.078125 54.6875 
L 18.109375 54.6875 
L 18.109375 46.1875 
Q 21.1875 51.21875 25.484375 53.609375 
Q 29.78125 56 35.6875 56 
Q 41.65625 56 45.828125 52.96875 
Q 50 49.953125 52 44.1875 
z
" id="DejaVuSans-109"/>
      <path d="M 56.203125 29.59375 
L 56.203125 25.203125 
L 14.890625 25.203125 
Q 15.484375 15.921875 20.484375 11.0625 
Q 25.484375 6.203125 34.421875 6.203125 
Q 39.59375 6.203125 44.453125 7.46875 
Q 49.3125 8.734375 54.109375 11.28125 
L 54.109375 2.78125 
Q 49.265625 0.734375 44.1875 -0.34375 
Q 39.109375 -1.421875 33.890625 -1.421875 
Q 20.796875 -1.421875 13.15625 6.1875 
Q 5.515625 13.8125 5.515625 26.8125 
Q 5.515625 40.234375 12.765625 48.109375 
Q 20.015625 56 32.328125 56 
Q 43.359375 56 49.78125 48.890625 
Q 56.203125 41.796875 56.203125 29.59375 
z
M 47.21875 32.234375 
Q 47.125 39.59375 43.09375 43.984375 
Q 39.0625 48.390625 32.421875 48.390625 
Q 24.90625 48.390625 20.390625 44.140625 
Q 15.875 39.890625 15.1875 32.171875 
z
" id="DejaVuSans-101"/>
      <path d="M 54.890625 33.015625 
L 54.890625 0 
L 45.90625 0 
L 45.90625 32.71875 
Q 45.90625 40.484375 42.875 44.328125 
Q 39.84375 48.1875 33.796875 48.1875 
Q 26.515625 48.1875 22.3125 43.546875 
Q 18.109375 38.921875 18.109375 30.90625 
L 18.109375 0 
L 9.078125 0 
L 9.078125 54.6875 
L 18.109375 54.6875 
L 18.109375 46.1875 
Q 21.34375 51.125 25.703125 53.5625 
Q 30.078125 56 35.796875 56 
Q 45.21875 56 50.046875 50.171875 
Q 54.890625 44.34375 54.890625 33.015625 
z
" id="DejaVuSans-110"/>
      <path d="M 18.3125 70.21875 
L 18.3125 54.6875 
L 36.8125 54.6875 
L 36.8125 47.703125 
L 18.3125 47.703125 
L 18.3125 18.015625 
Q 18.3125 11.328125 20.140625 9.421875 
Q 21.96875 7.515625 27.59375 7.515625 
L 36.8125 7.515625 
L 36.8125 0 
L 27.59375 0 
Q 17.1875 0 13.234375 3.875 
Q 9.28125 7.765625 9.28125 18.015625 
L 9.28125 47.703125 
L 2.6875 47.703125 
L 2.6875 54.6875 
L 9.28125 54.6875 
L 9.28125 70.21875 
z
" id="DejaVuSans-116"/>
      <path id="DejaVuSans-32"/>
      <path d="M 64.40625 67.28125 
L 64.40625 56.890625 
Q 59.421875 61.53125 53.78125 63.8125 
Q 48.140625 66.109375 41.796875 66.109375 
Q 29.296875 66.109375 22.65625 58.46875 
Q 16.015625 50.828125 16.015625 36.375 
Q 16.015625 21.96875 22.65625 14.328125 
Q 29.296875 6.6875 41.796875 6.6875 
Q 48.140625 6.6875 53.78125 8.984375 
Q 59.421875 11.28125 64.40625 15.921875 
L 64.40625 5.609375 
Q 59.234375 2.09375 53.4375 0.328125 
Q 47.65625 -1.421875 41.21875 -1.421875 
Q 24.65625 -1.421875 15.125 8.703125 
Q 5.609375 18.84375 5.609375 36.375 
Q 5.609375 53.953125 15.125 64.078125 
Q 24.65625 74.21875 41.21875 74.21875 
Q 47.75 74.21875 53.53125 72.484375 
Q 59.328125 70.75 64.40625 67.28125 
z
" id="DejaVuSans-67"/>
     </defs>
     <g transform="translate(187.5275 276.82125)scale(0.08 -0.08)">
      <use xlink:href="#DejaVuSans-68"/>
      <use x="77.001953" xlink:href="#DejaVuSans-111"/>
      <use x="138.183594" xlink:href="#DejaVuSans-99"/>
      <use x="193.164062" xlink:href="#DejaVuSans-117"/>
      <use x="256.542969" xlink:href="#DejaVuSans-109"/>
      <use x="353.955078" xlink:href="#DejaVuSans-101"/>
      <use x="415.478516" xlink:href="#DejaVuSans-110"/>
      <use x="478.857422" xlink:href="#DejaVuSans-116"/>
      <use x="518.066406" xlink:href="#DejaVuSans-32"/>
      <use x="549.853516" xlink:href="#DejaVuSans-67"/>
      <use x="619.677734" xlink:href="#DejaVuSans-111"/>
      <use x="680.859375" xlink:href="#DejaVuSans-117"/>
      <use x="744.238281" xlink:href="#DejaVuSans-110"/>
      <use x="807.617188" xlink:href="#DejaVuSans-116"/>
     </g>
    </g>
   </g>
   <g id="matplotlib.axis_2">
    <g id="ytick_1">
     <g id="line2d_9">
      <defs>
       <path d="M 0 0 
L -3.5 0 
" id="m790793d0e7" style="stroke:#000000;stroke-width:0.8;"/>
      </defs>
      <g>
       <use style="stroke:#000000;stroke-width:0.8;" x="54" xlink:href="#m790793d0e7" y="40.955294"/>
      </g>
     </g>
     <g id="text_10">
      <!-- Circulation &amp; Distribution -->
      <defs>
       <path d="M 9.421875 54.6875 
L 18.40625 54.6875 
L 18.40625 0 
L 9.421875 0 
z
M 9.421875 75.984375 
L 18.40625 75.984375 
L 18.40625 64.59375 
L 9.421875 64.59375 
z
" id="DejaVuSans-105"/>
       <path d="M 41.109375 46.296875 
Q 39.59375 47.171875 37.8125 47.578125 
Q 36.03125 48 33.890625 48 
Q 26.265625 48 22.1875 43.046875 
Q 18.109375 38.09375 18.109375 28.8125 
L 18.109375 0 
L 9.078125 0 
L 9.078125 54.6875 
L 18.109375 54.6875 
L 18.109375 46.1875 
Q 20.953125 51.171875 25.484375 53.578125 
Q 30.03125 56 36.53125 56 
Q 37.453125 56 38.578125 55.875 
Q 39.703125 55.765625 41.0625 55.515625 
z
" id="DejaVuSans-114"/>
       <path d="M 9.421875 75.984375 
L 18.40625 75.984375 
L 18.40625 0 
L 9.421875 0 
z
" id="DejaVuSans-108"/>
       <path d="M 34.28125 27.484375 
Q 23.390625 27.484375 19.1875 25 
Q 14.984375 22.515625 14.984375 16.5 
Q 14.984375 11.71875 18.140625 8.90625 
Q 21.296875 6.109375 26.703125 6.109375 
Q 34.1875 6.109375 38.703125 11.40625 
Q 43.21875 16.703125 43.21875 25.484375 
L 43.21875 27.484375 
z
M 52.203125 31.203125 
L 52.203125 0 
L 43.21875 0 
L 43.21875 8.296875 
Q 40.140625 3.328125 35.546875 0.953125 
Q 30.953125 -1.421875 24.3125 -1.421875 
Q 15.921875 -1.421875 10.953125 3.296875 
Q 6 8.015625 6 15.921875 
Q 6 25.140625 12.171875 29.828125 
Q 18.359375 34.515625 30.609375 34.515625 
L 43.21875 34.515625 
L 43.21875 35.40625 
Q 43.21875 41.609375 39.140625 45 
Q 35.0625 48.390625 27.6875 48.390625 
Q 23 48.390625 18.546875 47.265625 
Q 14.109375 46.140625 10.015625 43.890625 
L 10.015625 52.203125 
Q 14.9375 54.109375 19.578125 55.046875 
Q 24.21875 56 28.609375 56 
Q 40.484375 56 46.34375 49.84375 
Q 52.203125 43.703125 52.203125 31.203125 
z
" id="DejaVuSans-97"/>
       <path d="M 24.3125 39.203125 
Q 19.875 35.25 17.796875 31.3125 
Q 15.71875 27.390625 15.71875 23.09375 
Q 15.71875 15.96875 20.890625 11.234375 
Q 26.078125 6.5 33.890625 6.5 
Q 38.53125 6.5 42.578125 8.03125 
Q 46.625 9.578125 50.203125 12.703125 
z
M 31.203125 44.671875 
L 56 19.28125 
Q 58.890625 23.640625 60.5 28.59375 
Q 62.109375 33.546875 62.40625 39.109375 
L 71.484375 39.109375 
Q 70.90625 32.671875 68.359375 26.359375 
Q 65.828125 20.0625 61.28125 13.921875 
L 74.90625 0 
L 62.59375 0 
L 55.609375 7.171875 
Q 50.53125 2.828125 44.96875 0.703125 
Q 39.40625 -1.421875 33.015625 -1.421875 
Q 21.234375 -1.421875 13.765625 5.296875 
Q 6.296875 12.015625 6.296875 22.515625 
Q 6.296875 28.765625 9.5625 34.25 
Q 12.84375 39.75 19.390625 44.578125 
Q 17.046875 47.65625 15.8125 50.703125 
Q 14.59375 53.765625 14.59375 56.6875 
Q 14.59375 64.59375 20.015625 69.40625 
Q 25.4375 74.21875 34.421875 74.21875 
Q 38.484375 74.21875 42.5 73.34375 
Q 46.53125 72.46875 50.6875 70.703125 
L 50.6875 61.8125 
Q 46.4375 64.109375 42.578125 65.296875 
Q 38.71875 66.5 35.40625 66.5 
Q 30.28125 66.5 27.078125 63.78125 
Q 23.875 61.078125 23.875 56.78125 
Q 23.875 54.296875 25.3125 51.78125 
Q 26.765625 49.265625 31.203125 44.671875 
z
" id="DejaVuSans-38"/>
       <path d="M 44.28125 53.078125 
L 44.28125 44.578125 
Q 40.484375 46.53125 36.375 47.5 
Q 32.28125 48.484375 27.875 48.484375 
Q 21.1875 48.484375 17.84375 46.4375 
Q 14.5 44.390625 14.5 40.28125 
Q 14.5 37.15625 16.890625 35.375 
Q 19.28125 33.59375 26.515625 31.984375 
L 29.59375 31.296875 
Q 39.15625 29.25 43.1875 25.515625 
Q 47.21875 21.78125 47.21875 15.09375 
Q 47.21875 7.46875 41.1875 3.015625 
Q 35.15625 -1.421875 24.609375 -1.421875 
Q 20.21875 -1.421875 15.453125 -0.5625 
Q 10.6875 0.296875 5.421875 2 
L 5.421875 11.28125 
Q 10.40625 8.6875 15.234375 7.390625 
Q 20.0625 6.109375 24.8125 6.109375 
Q 31.15625 6.109375 34.5625 8.28125 
Q 37.984375 10.453125 37.984375 14.40625 
Q 37.984375 18.0625 35.515625 20.015625 
Q 33.0625 21.96875 24.703125 23.78125 
L 21.578125 24.515625 
Q 13.234375 26.265625 9.515625 29.90625 
Q 5.8125 33.546875 5.8125 39.890625 
Q 5.8125 47.609375 11.28125 51.796875 
Q 16.75 56 26.8125 56 
Q 31.78125 56 36.171875 55.265625 
Q 40.578125 54.546875 44.28125 53.078125 
z
" id="DejaVuSans-115"/>
       <path d="M 48.6875 27.296875 
Q 48.6875 37.203125 44.609375 42.84375 
Q 40.53125 48.484375 33.40625 48.484375 
Q 26.265625 48.484375 22.1875 42.84375 
Q 18.109375 37.203125 18.109375 27.296875 
Q 18.109375 17.390625 22.1875 11.75 
Q 26.265625 6.109375 33.40625 6.109375 
Q 40.53125 6.109375 44.609375 11.75 
Q 48.6875 17.390625 48.6875 27.296875 
z
M 18.109375 46.390625 
Q 20.953125 51.265625 25.265625 53.625 
Q 29.59375 56 35.59375 56 
Q 45.5625 56 51.78125 48.09375 
Q 58.015625 40.1875 58.015625 27.296875 
Q 58.015625 14.40625 51.78125 6.484375 
Q 45.5625 -1.421875 35.59375 -1.421875 
Q 29.59375 -1.421875 25.265625 0.953125 
Q 20.953125 3.328125 18.109375 8.203125 
L 18.109375 0 
L 9.078125 0 
L 9.078125 75.984375 
L 18.109375 75.984375 
z
" id="DejaVuSans-98"/>
      </defs>
      <g transform="translate(-54.00625 43.994669)scale(0.08 -0.08)">
       <use xlink:href="#DejaVuSans-67"/>
       <use x="69.824219" xlink:href="#DejaVuSans-105"/>
       <use x="97.607422" xlink:href="#DejaVuSans-114"/>
       <use x="138.689453" xlink:href="#DejaVuSans-99"/>
       <use x="193.669922" xlink:href="#DejaVuSans-117"/>
       <use x="257.048828" xlink:href="#DejaVuSans-108"/>
       <use x="284.832031" xlink:href="#DejaVuSans-97"/>
       <use x="346.111328" xlink:href="#DejaVuSans-116"/>
       <use x="385.320312" xlink:href="#DejaVuSans-105"/>
       <use x="413.103516" xlink:href="#DejaVuSans-111"/>
       <use x="474.285156" xlink:href="#DejaVuSans-110"/>
       <use x="537.664062" xlink:href="#DejaVuSans-32"/>
       <use x="569.451172" xlink:href="#DejaVuSans-38"/>
       <use x="647.429688" xlink:href="#DejaVuSans-32"/>
       <use x="679.216797" xlink:href="#DejaVuSans-68"/>
       <use x="756.21875" xlink:href="#DejaVuSans-105"/>
       <use x="784.001953" xlink:href="#DejaVuSans-115"/>
       <use x="836.101562" xlink:href="#DejaVuSans-116"/>
       <use x="875.310547" xlink:href="#DejaVuSans-114"/>
       <use x="916.423828" xlink:href="#DejaVuSans-105"/>
       <use x="944.207031" xlink:href="#DejaVuSans-98"/>
       <use x="1007.683594" xlink:href="#DejaVuSans-117"/>
       <use x="1071.0625" xlink:href="#DejaVuSans-116"/>
       <use x="1110.271484" xlink:href="#DejaVuSans-105"/>
       <use x="1138.054688" xlink:href="#DejaVuSans-111"/>
       <use x="1199.236328" xlink:href="#DejaVuSans-110"/>
      </g>
     </g>
    </g>
    <g id="ytick_2">
     <g id="line2d_10">
      <g>
       <use style="stroke:#000000;stroke-width:0.8;" x="54" xlink:href="#m790793d0e7" y="53.745882"/>
      </g>
     </g>
     <g id="text_11">
      <!-- Social Media &amp; Fake News -->
      <defs>
       <path d="M 53.515625 70.515625 
L 53.515625 60.890625 
Q 47.90625 63.578125 42.921875 64.890625 
Q 37.9375 66.21875 33.296875 66.21875 
Q 25.25 66.21875 20.875 63.09375 
Q 16.5 59.96875 16.5 54.203125 
Q 16.5 49.359375 19.40625 46.890625 
Q 22.3125 44.4375 30.421875 42.921875 
L 36.375 41.703125 
Q 47.40625 39.59375 52.65625 34.296875 
Q 57.90625 29 57.90625 20.125 
Q 57.90625 9.515625 50.796875 4.046875 
Q 43.703125 -1.421875 29.984375 -1.421875 
Q 24.8125 -1.421875 18.96875 -0.25 
Q 13.140625 0.921875 6.890625 3.21875 
L 6.890625 13.375 
Q 12.890625 10.015625 18.65625 8.296875 
Q 24.421875 6.59375 29.984375 6.59375 
Q 38.421875 6.59375 43.015625 9.90625 
Q 47.609375 13.234375 47.609375 19.390625 
Q 47.609375 24.75 44.3125 27.78125 
Q 41.015625 30.8125 33.5 32.328125 
L 27.484375 33.5 
Q 16.453125 35.6875 11.515625 40.375 
Q 6.59375 45.0625 6.59375 53.421875 
Q 6.59375 63.09375 13.40625 68.65625 
Q 20.21875 74.21875 32.171875 74.21875 
Q 37.3125 74.21875 42.625 73.28125 
Q 47.953125 72.359375 53.515625 70.515625 
z
" id="DejaVuSans-83"/>
       <path d="M 9.8125 72.90625 
L 24.515625 72.90625 
L 43.109375 23.296875 
L 61.8125 72.90625 
L 76.515625 72.90625 
L 76.515625 0 
L 66.890625 0 
L 66.890625 64.015625 
L 48.09375 14.015625 
L 38.1875 14.015625 
L 19.390625 64.015625 
L 19.390625 0 
L 9.8125 0 
z
" id="DejaVuSans-77"/>
       <path d="M 45.40625 46.390625 
L 45.40625 75.984375 
L 54.390625 75.984375 
L 54.390625 0 
L 45.40625 0 
L 45.40625 8.203125 
Q 42.578125 3.328125 38.25 0.953125 
Q 33.9375 -1.421875 27.875 -1.421875 
Q 17.96875 -1.421875 11.734375 6.484375 
Q 5.515625 14.40625 5.515625 27.296875 
Q 5.515625 40.1875 11.734375 48.09375 
Q 17.96875 56 27.875 56 
Q 33.9375 56 38.25 53.625 
Q 42.578125 51.265625 45.40625 46.390625 
z
M 14.796875 27.296875 
Q 14.796875 17.390625 18.875 11.75 
Q 22.953125 6.109375 30.078125 6.109375 
Q 37.203125 6.109375 41.296875 11.75 
Q 45.40625 17.390625 45.40625 27.296875 
Q 45.40625 37.203125 41.296875 42.84375 
Q 37.203125 48.484375 30.078125 48.484375 
Q 22.953125 48.484375 18.875 42.84375 
Q 14.796875 37.203125 14.796875 27.296875 
z
" id="DejaVuSans-100"/>
       <path d="M 9.8125 72.90625 
L 51.703125 72.90625 
L 51.703125 64.59375 
L 19.671875 64.59375 
L 19.671875 43.109375 
L 48.578125 43.109375 
L 48.578125 34.8125 
L 19.671875 34.8125 
L 19.671875 0 
L 9.8125 0 
z
" id="DejaVuSans-70"/>
       <path d="M 9.078125 75.984375 
L 18.109375 75.984375 
L 18.109375 31.109375 
L 44.921875 54.6875 
L 56.390625 54.6875 
L 27.390625 29.109375 
L 57.625 0 
L 45.90625 0 
L 18.109375 26.703125 
L 18.109375 0 
L 9.078125 0 
z
" id="DejaVuSans-107"/>
       <path d="M 9.8125 72.90625 
L 23.09375 72.90625 
L 55.421875 11.921875 
L 55.421875 72.90625 
L 64.984375 72.90625 
L 64.984375 0 
L 51.703125 0 
L 19.390625 60.984375 
L 19.390625 0 
L 9.8125 0 
z
" id="DejaVuSans-78"/>
       <path d="M 4.203125 54.6875 
L 13.1875 54.6875 
L 24.421875 12.015625 
L 35.59375 54.6875 
L 46.1875 54.6875 
L 57.421875 12.015625 
L 68.609375 54.6875 
L 77.59375 54.6875 
L 63.28125 0 
L 52.6875 0 
L 40.921875 44.828125 
L 29.109375 0 
L 18.5 0 
z
" id="DejaVuSans-119"/>
      </defs>
      <g transform="translate(-57.81875 56.785257)scale(0.08 -0.08)">
       <use xlink:href="#DejaVuSans-83"/>
       <use x="63.476562" xlink:href="#DejaVuSans-111"/>
       <use x="124.658203" xlink:href="#DejaVuSans-99"/>
       <use x="179.638672" xlink:href="#DejaVuSans-105"/>
       <use x="207.421875" xlink:href="#DejaVuSans-97"/>
       <use x="268.701172" xlink:href="#DejaVuSans-108"/>
       <use x="296.484375" xlink:href="#DejaVuSans-32"/>
       <use x="328.271484" xlink:href="#DejaVuSans-77"/>
       <use x="414.550781" xlink:href="#DejaVuSans-101"/>
       <use x="476.074219" xlink:href="#DejaVuSans-100"/>
       <use x="539.550781" xlink:href="#DejaVuSans-105"/>
       <use x="567.333984" xlink:href="#DejaVuSans-97"/>
       <use x="628.613281" xlink:href="#DejaVuSans-32"/>
       <use x="660.400391" xlink:href="#DejaVuSans-38"/>
       <use x="738.378906" xlink:href="#DejaVuSans-32"/>
       <use x="770.166016" xlink:href="#DejaVuSans-70"/>
       <use x="827.544922" xlink:href="#DejaVuSans-97"/>
       <use x="888.824219" xlink:href="#DejaVuSans-107"/>
       <use x="946.6875" xlink:href="#DejaVuSans-101"/>
       <use x="1008.210938" xlink:href="#DejaVuSans-32"/>
       <use x="1039.998047" xlink:href="#DejaVuSans-78"/>
       <use x="1114.802734" xlink:href="#DejaVuSans-101"/>
       <use x="1176.326172" xlink:href="#DejaVuSans-119"/>
       <use x="1258.113281" xlink:href="#DejaVuSans-115"/>
      </g>
     </g>
    </g>
    <g id="ytick_3">
     <g id="line2d_11">
      <g>
       <use style="stroke:#000000;stroke-width:0.8;" x="54" xlink:href="#m790793d0e7" y="66.536471"/>
      </g>
     </g>
     <g id="text_12">
      <!-- Exec Newspeople -->
      <defs>
       <path d="M 9.8125 72.90625 
L 55.90625 72.90625 
L 55.90625 64.59375 
L 19.671875 64.59375 
L 19.671875 43.015625 
L 54.390625 43.015625 
L 54.390625 34.71875 
L 19.671875 34.71875 
L 19.671875 8.296875 
L 56.78125 8.296875 
L 56.78125 0 
L 9.8125 0 
z
" id="DejaVuSans-69"/>
       <path d="M 54.890625 54.6875 
L 35.109375 28.078125 
L 55.90625 0 
L 45.3125 0 
L 29.390625 21.484375 
L 13.484375 0 
L 2.875 0 
L 24.125 28.609375 
L 4.6875 54.6875 
L 15.28125 54.6875 
L 29.78125 35.203125 
L 44.28125 54.6875 
z
" id="DejaVuSans-120"/>
       <path d="M 18.109375 8.203125 
L 18.109375 -20.796875 
L 9.078125 -20.796875 
L 9.078125 54.6875 
L 18.109375 54.6875 
L 18.109375 46.390625 
Q 20.953125 51.265625 25.265625 53.625 
Q 29.59375 56 35.59375 56 
Q 45.5625 56 51.78125 48.09375 
Q 58.015625 40.1875 58.015625 27.296875 
Q 58.015625 14.40625 51.78125 6.484375 
Q 45.5625 -1.421875 35.59375 -1.421875 
Q 29.59375 -1.421875 25.265625 0.953125 
Q 20.953125 3.328125 18.109375 8.203125 
z
M 48.6875 27.296875 
Q 48.6875 37.203125 44.609375 42.84375 
Q 40.53125 48.484375 33.40625 48.484375 
Q 26.265625 48.484375 22.1875 42.84375 
Q 18.109375 37.203125 18.109375 27.296875 
Q 18.109375 17.390625 22.1875 11.75 
Q 26.265625 6.109375 33.40625 6.109375 
Q 40.53125 6.109375 44.609375 11.75 
Q 48.6875 17.390625 48.6875 27.296875 
z
" id="DejaVuSans-112"/>
      </defs>
      <g transform="translate(-23.3875 69.575846)scale(0.08 -0.08)">
       <use xlink:href="#DejaVuSans-69"/>
       <use x="63.183594" xlink:href="#DejaVuSans-120"/>
       <use x="122.316406" xlink:href="#DejaVuSans-101"/>
       <use x="183.839844" xlink:href="#DejaVuSans-99"/>
       <use x="238.820312" xlink:href="#DejaVuSans-32"/>
       <use x="270.607422" xlink:href="#DejaVuSans-78"/>
       <use x="345.412109" xlink:href="#DejaVuSans-101"/>
       <use x="406.935547" xlink:href="#DejaVuSans-119"/>
       <use x="488.722656" xlink:href="#DejaVuSans-115"/>
       <use x="540.822266" xlink:href="#DejaVuSans-112"/>
       <use x="604.298828" xlink:href="#DejaVuSans-101"/>
       <use x="665.822266" xlink:href="#DejaVuSans-111"/>
       <use x="727.003906" xlink:href="#DejaVuSans-112"/>
       <use x="790.480469" xlink:href="#DejaVuSans-108"/>
       <use x="818.263672" xlink:href="#DejaVuSans-101"/>
      </g>
     </g>
    </g>
    <g id="ytick_4">
     <g id="line2d_12">
      <g>
       <use style="stroke:#000000;stroke-width:0.8;" x="54" xlink:href="#m790793d0e7" y="79.327059"/>
      </g>
     </g>
     <g id="text_13">
      <!-- Legal Issues -->
      <defs>
       <path d="M 9.8125 72.90625 
L 19.671875 72.90625 
L 19.671875 8.296875 
L 55.171875 8.296875 
L 55.171875 0 
L 9.8125 0 
z
" id="DejaVuSans-76"/>
       <path d="M 45.40625 27.984375 
Q 45.40625 37.75 41.375 43.109375 
Q 37.359375 48.484375 30.078125 48.484375 
Q 22.859375 48.484375 18.828125 43.109375 
Q 14.796875 37.75 14.796875 27.984375 
Q 14.796875 18.265625 18.828125 12.890625 
Q 22.859375 7.515625 30.078125 7.515625 
Q 37.359375 7.515625 41.375 12.890625 
Q 45.40625 18.265625 45.40625 27.984375 
z
M 54.390625 6.78125 
Q 54.390625 -7.171875 48.1875 -13.984375 
Q 42 -20.796875 29.203125 -20.796875 
Q 24.46875 -20.796875 20.265625 -20.09375 
Q 16.0625 -19.390625 12.109375 -17.921875 
L 12.109375 -9.1875 
Q 16.0625 -11.328125 19.921875 -12.34375 
Q 23.78125 -13.375 27.78125 -13.375 
Q 36.625 -13.375 41.015625 -8.765625 
Q 45.40625 -4.15625 45.40625 5.171875 
L 45.40625 9.625 
Q 42.625 4.78125 38.28125 2.390625 
Q 33.9375 0 27.875 0 
Q 17.828125 0 11.671875 7.65625 
Q 5.515625 15.328125 5.515625 27.984375 
Q 5.515625 40.671875 11.671875 48.328125 
Q 17.828125 56 27.875 56 
Q 33.9375 56 38.28125 53.609375 
Q 42.625 51.21875 45.40625 46.390625 
L 45.40625 54.6875 
L 54.390625 54.6875 
z
" id="DejaVuSans-103"/>
       <path d="M 9.8125 72.90625 
L 19.671875 72.90625 
L 19.671875 0 
L 9.8125 0 
z
" id="DejaVuSans-73"/>
      </defs>
      <g transform="translate(-1.98 82.366434)scale(0.08 -0.08)">
       <use xlink:href="#DejaVuSans-76"/>
       <use x="55.697266" xlink:href="#DejaVuSans-101"/>
       <use x="117.220703" xlink:href="#DejaVuSans-103"/>
       <use x="180.697266" xlink:href="#DejaVuSans-97"/>
       <use x="241.976562" xlink:href="#DejaVuSans-108"/>
       <use x="269.759766" xlink:href="#DejaVuSans-32"/>
       <use x="301.546875" xlink:href="#DejaVuSans-73"/>
       <use x="331.039062" xlink:href="#DejaVuSans-115"/>
       <use x="383.138672" xlink:href="#DejaVuSans-115"/>
       <use x="435.238281" xlink:href="#DejaVuSans-117"/>
       <use x="498.617188" xlink:href="#DejaVuSans-101"/>
       <use x="560.140625" xlink:href="#DejaVuSans-115"/>
      </g>
     </g>
    </g>
    <g id="ytick_5">
     <g id="line2d_13">
      <g>
       <use style="stroke:#000000;stroke-width:0.8;" x="54" xlink:href="#m790793d0e7" y="92.117647"/>
      </g>
     </g>
     <g id="text_14">
      <!-- No Topic -->
      <defs>
       <path d="M -0.296875 72.90625 
L 61.375 72.90625 
L 61.375 64.59375 
L 35.5 64.59375 
L 35.5 0 
L 25.59375 0 
L 25.59375 64.59375 
L -0.296875 64.59375 
z
" id="DejaVuSans-84"/>
      </defs>
      <g transform="translate(12.1175 95.157022)scale(0.08 -0.08)">
       <use xlink:href="#DejaVuSans-78"/>
       <use x="74.804688" xlink:href="#DejaVuSans-111"/>
       <use x="135.986328" xlink:href="#DejaVuSans-32"/>
       <use x="167.773438" xlink:href="#DejaVuSans-84"/>
       <use x="228.591797" xlink:href="#DejaVuSans-111"/>
       <use x="289.773438" xlink:href="#DejaVuSans-112"/>
       <use x="353.25" xlink:href="#DejaVuSans-105"/>
       <use x="381.033203" xlink:href="#DejaVuSans-99"/>
      </g>
     </g>
    </g>
    <g id="ytick_6">
     <g id="line2d_14">
      <g>
       <use style="stroke:#000000;stroke-width:0.8;" x="54" xlink:href="#m790793d0e7" y="104.908235"/>
      </g>
     </g>
     <g id="text_15">
      <!-- Freedom of Press -->
      <defs>
       <path d="M 37.109375 75.984375 
L 37.109375 68.5 
L 28.515625 68.5 
Q 23.6875 68.5 21.796875 66.546875 
Q 19.921875 64.59375 19.921875 59.515625 
L 19.921875 54.6875 
L 34.71875 54.6875 
L 34.71875 47.703125 
L 19.921875 47.703125 
L 19.921875 0 
L 10.890625 0 
L 10.890625 47.703125 
L 2.296875 47.703125 
L 2.296875 54.6875 
L 10.890625 54.6875 
L 10.890625 58.5 
Q 10.890625 67.625 15.140625 71.796875 
Q 19.390625 75.984375 28.609375 75.984375 
z
" id="DejaVuSans-102"/>
       <path d="M 19.671875 64.796875 
L 19.671875 37.40625 
L 32.078125 37.40625 
Q 38.96875 37.40625 42.71875 40.96875 
Q 46.484375 44.53125 46.484375 51.125 
Q 46.484375 57.671875 42.71875 61.234375 
Q 38.96875 64.796875 32.078125 64.796875 
z
M 9.8125 72.90625 
L 32.078125 72.90625 
Q 44.34375 72.90625 50.609375 67.359375 
Q 56.890625 61.8125 56.890625 51.125 
Q 56.890625 40.328125 50.609375 34.8125 
Q 44.34375 29.296875 32.078125 29.296875 
L 19.671875 29.296875 
L 19.671875 0 
L 9.8125 0 
z
" id="DejaVuSans-80"/>
      </defs>
      <g transform="translate(-22.6525 107.94761)scale(0.08 -0.08)">
       <use xlink:href="#DejaVuSans-70"/>
       <use x="57.410156" xlink:href="#DejaVuSans-114"/>
       <use x="98.492188" xlink:href="#DejaVuSans-101"/>
       <use x="160.015625" xlink:href="#DejaVuSans-101"/>
       <use x="221.539062" xlink:href="#DejaVuSans-100"/>
       <use x="285.015625" xlink:href="#DejaVuSans-111"/>
       <use x="346.197266" xlink:href="#DejaVuSans-109"/>
       <use x="443.609375" xlink:href="#DejaVuSans-32"/>
       <use x="475.396484" xlink:href="#DejaVuSans-111"/>
       <use x="536.578125" xlink:href="#DejaVuSans-102"/>
       <use x="571.783203" xlink:href="#DejaVuSans-32"/>
       <use x="603.570312" xlink:href="#DejaVuSans-80"/>
       <use x="663.857422" xlink:href="#DejaVuSans-114"/>
       <use x="704.939453" xlink:href="#DejaVuSans-101"/>
       <use x="766.462891" xlink:href="#DejaVuSans-115"/>
       <use x="818.5625" xlink:href="#DejaVuSans-115"/>
      </g>
     </g>
    </g>
    <g id="ytick_7">
     <g id="line2d_15">
      <g>
       <use style="stroke:#000000;stroke-width:0.8;" x="54" xlink:href="#m790793d0e7" y="117.698824"/>
      </g>
     </g>
     <g id="text_16">
      <!-- Newspeople -->
      <g transform="translate(-1.7375 120.738199)scale(0.08 -0.08)">
       <use xlink:href="#DejaVuSans-78"/>
       <use x="74.804688" xlink:href="#DejaVuSans-101"/>
       <use x="136.328125" xlink:href="#DejaVuSans-119"/>
       <use x="218.115234" xlink:href="#DejaVuSans-115"/>
       <use x="270.214844" xlink:href="#DejaVuSans-112"/>
       <use x="333.691406" xlink:href="#DejaVuSans-101"/>
       <use x="395.214844" xlink:href="#DejaVuSans-111"/>
       <use x="456.396484" xlink:href="#DejaVuSans-112"/>
       <use x="519.873047" xlink:href="#DejaVuSans-108"/>
       <use x="547.65625" xlink:href="#DejaVuSans-101"/>
      </g>
     </g>
    </g>
    <g id="ytick_8">
     <g id="line2d_16">
      <g>
       <use style="stroke:#000000;stroke-width:0.8;" x="54" xlink:href="#m790793d0e7" y="130.489412"/>
      </g>
     </g>
     <g id="text_17">
      <!-- Online Publishing -->
      <defs>
       <path d="M 39.40625 66.21875 
Q 28.65625 66.21875 22.328125 58.203125 
Q 16.015625 50.203125 16.015625 36.375 
Q 16.015625 22.609375 22.328125 14.59375 
Q 28.65625 6.59375 39.40625 6.59375 
Q 50.140625 6.59375 56.421875 14.59375 
Q 62.703125 22.609375 62.703125 36.375 
Q 62.703125 50.203125 56.421875 58.203125 
Q 50.140625 66.21875 39.40625 66.21875 
z
M 39.40625 74.21875 
Q 54.734375 74.21875 63.90625 63.9375 
Q 73.09375 53.65625 73.09375 36.375 
Q 73.09375 19.140625 63.90625 8.859375 
Q 54.734375 -1.421875 39.40625 -1.421875 
Q 24.03125 -1.421875 14.8125 8.828125 
Q 5.609375 19.09375 5.609375 36.375 
Q 5.609375 53.65625 14.8125 63.9375 
Q 24.03125 74.21875 39.40625 74.21875 
z
" id="DejaVuSans-79"/>
       <path d="M 54.890625 33.015625 
L 54.890625 0 
L 45.90625 0 
L 45.90625 32.71875 
Q 45.90625 40.484375 42.875 44.328125 
Q 39.84375 48.1875 33.796875 48.1875 
Q 26.515625 48.1875 22.3125 43.546875 
Q 18.109375 38.921875 18.109375 30.90625 
L 18.109375 0 
L 9.078125 0 
L 9.078125 75.984375 
L 18.109375 75.984375 
L 18.109375 46.1875 
Q 21.34375 51.125 25.703125 53.5625 
Q 30.078125 56 35.796875 56 
Q 45.21875 56 50.046875 50.171875 
Q 54.890625 44.34375 54.890625 33.015625 
z
" id="DejaVuSans-104"/>
      </defs>
      <g transform="translate(-22.3725 133.528787)scale(0.08 -0.08)">
       <use xlink:href="#DejaVuSans-79"/>
       <use x="78.710938" xlink:href="#DejaVuSans-110"/>
       <use x="142.089844" xlink:href="#DejaVuSans-108"/>
       <use x="169.873047" xlink:href="#DejaVuSans-105"/>
       <use x="197.65625" xlink:href="#DejaVuSans-110"/>
       <use x="261.035156" xlink:href="#DejaVuSans-101"/>
       <use x="322.558594" xlink:href="#DejaVuSans-32"/>
       <use x="354.345703" xlink:href="#DejaVuSans-80"/>
       <use x="414.632812" xlink:href="#DejaVuSans-117"/>
       <use x="478.011719" xlink:href="#DejaVuSans-98"/>
       <use x="541.488281" xlink:href="#DejaVuSans-108"/>
       <use x="569.271484" xlink:href="#DejaVuSans-105"/>
       <use x="597.054688" xlink:href="#DejaVuSans-115"/>
       <use x="649.154297" xlink:href="#DejaVuSans-104"/>
       <use x="712.533203" xlink:href="#DejaVuSans-105"/>
       <use x="740.316406" xlink:href="#DejaVuSans-110"/>
       <use x="803.695312" xlink:href="#DejaVuSans-103"/>
      </g>
     </g>
    </g>
    <g id="ytick_9">
     <g id="line2d_17">
      <g>
       <use style="stroke:#000000;stroke-width:0.8;" x="54" xlink:href="#m790793d0e7" y="143.28"/>
      </g>
     </g>
     <g id="text_18">
      <!-- Editorial Cartoons -->
      <g transform="translate(-24.5075 146.319375)scale(0.08 -0.08)">
       <use xlink:href="#DejaVuSans-69"/>
       <use x="63.183594" xlink:href="#DejaVuSans-100"/>
       <use x="126.660156" xlink:href="#DejaVuSans-105"/>
       <use x="154.443359" xlink:href="#DejaVuSans-116"/>
       <use x="193.652344" xlink:href="#DejaVuSans-111"/>
       <use x="254.833984" xlink:href="#DejaVuSans-114"/>
       <use x="295.947266" xlink:href="#DejaVuSans-105"/>
       <use x="323.730469" xlink:href="#DejaVuSans-97"/>
       <use x="385.009766" xlink:href="#DejaVuSans-108"/>
       <use x="412.792969" xlink:href="#DejaVuSans-32"/>
       <use x="444.580078" xlink:href="#DejaVuSans-67"/>
       <use x="514.404297" xlink:href="#DejaVuSans-97"/>
       <use x="575.683594" xlink:href="#DejaVuSans-114"/>
       <use x="616.796875" xlink:href="#DejaVuSans-116"/>
       <use x="656.005859" xlink:href="#DejaVuSans-111"/>
       <use x="717.1875" xlink:href="#DejaVuSans-111"/>
       <use x="778.369141" xlink:href="#DejaVuSans-110"/>
       <use x="841.748047" xlink:href="#DejaVuSans-115"/>
      </g>
     </g>
    </g>
    <g id="ytick_10">
     <g id="line2d_18">
      <g>
       <use style="stroke:#000000;stroke-width:0.8;" x="54" xlink:href="#m790793d0e7" y="156.070588"/>
      </g>
     </g>
     <g id="text_19">
      <!-- Journalism Awards -->
      <defs>
       <path d="M 9.8125 72.90625 
L 19.671875 72.90625 
L 19.671875 5.078125 
Q 19.671875 -8.109375 14.671875 -14.0625 
Q 9.671875 -20.015625 -1.421875 -20.015625 
L -5.171875 -20.015625 
L -5.171875 -11.71875 
L -2.09375 -11.71875 
Q 4.4375 -11.71875 7.125 -8.046875 
Q 9.8125 -4.390625 9.8125 5.078125 
z
" id="DejaVuSans-74"/>
       <path d="M 34.1875 63.1875 
L 20.796875 26.90625 
L 47.609375 26.90625 
z
M 28.609375 72.90625 
L 39.796875 72.90625 
L 67.578125 0 
L 57.328125 0 
L 50.6875 18.703125 
L 17.828125 18.703125 
L 11.1875 0 
L 0.78125 0 
z
" id="DejaVuSans-65"/>
      </defs>
      <g transform="translate(-26.97875 159.109963)scale(0.08 -0.08)">
       <use xlink:href="#DejaVuSans-74"/>
       <use x="29.492188" xlink:href="#DejaVuSans-111"/>
       <use x="90.673828" xlink:href="#DejaVuSans-117"/>
       <use x="154.052734" xlink:href="#DejaVuSans-114"/>
       <use x="195.150391" xlink:href="#DejaVuSans-110"/>
       <use x="258.529297" xlink:href="#DejaVuSans-97"/>
       <use x="319.808594" xlink:href="#DejaVuSans-108"/>
       <use x="347.591797" xlink:href="#DejaVuSans-105"/>
       <use x="375.375" xlink:href="#DejaVuSans-115"/>
       <use x="427.474609" xlink:href="#DejaVuSans-109"/>
       <use x="524.886719" xlink:href="#DejaVuSans-32"/>
       <use x="556.673828" xlink:href="#DejaVuSans-65"/>
       <use x="625.019531" xlink:href="#DejaVuSans-119"/>
       <use x="706.806641" xlink:href="#DejaVuSans-97"/>
       <use x="768.085938" xlink:href="#DejaVuSans-114"/>
       <use x="809.183594" xlink:href="#DejaVuSans-100"/>
       <use x="872.660156" xlink:href="#DejaVuSans-115"/>
      </g>
     </g>
    </g>
    <g id="ytick_11">
     <g id="line2d_19">
      <g>
       <use style="stroke:#000000;stroke-width:0.8;" x="54" xlink:href="#m790793d0e7" y="168.861176"/>
      </g>
     </g>
     <g id="text_20">
      <!-- Major National Newspapers -->
      <defs>
       <path d="M 9.421875 54.6875 
L 18.40625 54.6875 
L 18.40625 -0.984375 
Q 18.40625 -11.421875 14.421875 -16.109375 
Q 10.453125 -20.796875 1.609375 -20.796875 
L -1.8125 -20.796875 
L -1.8125 -13.1875 
L 0.59375 -13.1875 
Q 5.71875 -13.1875 7.5625 -10.8125 
Q 9.421875 -8.453125 9.421875 -0.984375 
z
M 9.421875 75.984375 
L 18.40625 75.984375 
L 18.40625 64.59375 
L 9.421875 64.59375 
z
" id="DejaVuSans-106"/>
      </defs>
      <g transform="translate(-62.68875 171.900551)scale(0.08 -0.08)">
       <use xlink:href="#DejaVuSans-77"/>
       <use x="86.279297" xlink:href="#DejaVuSans-97"/>
       <use x="147.558594" xlink:href="#DejaVuSans-106"/>
       <use x="175.341797" xlink:href="#DejaVuSans-111"/>
       <use x="236.523438" xlink:href="#DejaVuSans-114"/>
       <use x="277.636719" xlink:href="#DejaVuSans-32"/>
       <use x="309.423828" xlink:href="#DejaVuSans-78"/>
       <use x="384.228516" xlink:href="#DejaVuSans-97"/>
       <use x="445.507812" xlink:href="#DejaVuSans-116"/>
       <use x="484.716797" xlink:href="#DejaVuSans-105"/>
       <use x="512.5" xlink:href="#DejaVuSans-111"/>
       <use x="573.681641" xlink:href="#DejaVuSans-110"/>
       <use x="637.060547" xlink:href="#DejaVuSans-97"/>
       <use x="698.339844" xlink:href="#DejaVuSans-108"/>
       <use x="726.123047" xlink:href="#DejaVuSans-32"/>
       <use x="757.910156" xlink:href="#DejaVuSans-78"/>
       <use x="832.714844" xlink:href="#DejaVuSans-101"/>
       <use x="894.238281" xlink:href="#DejaVuSans-119"/>
       <use x="976.025391" xlink:href="#DejaVuSans-115"/>
       <use x="1028.125" xlink:href="#DejaVuSans-112"/>
       <use x="1091.601562" xlink:href="#DejaVuSans-97"/>
       <use x="1152.880859" xlink:href="#DejaVuSans-112"/>
       <use x="1216.357422" xlink:href="#DejaVuSans-101"/>
       <use x="1277.880859" xlink:href="#DejaVuSans-114"/>
       <use x="1318.994141" xlink:href="#DejaVuSans-115"/>
      </g>
     </g>
    </g>
    <g id="ytick_12">
     <g id="line2d_20">
      <g>
       <use style="stroke:#000000;stroke-width:0.8;" x="54" xlink:href="#m790793d0e7" y="181.651765"/>
      </g>
     </g>
     <g id="text_21">
      <!-- War in Middle East -->
      <defs>
       <path d="M 3.328125 72.90625 
L 13.28125 72.90625 
L 28.609375 11.28125 
L 43.890625 72.90625 
L 54.984375 72.90625 
L 70.3125 11.28125 
L 85.59375 72.90625 
L 95.609375 72.90625 
L 77.296875 0 
L 64.890625 0 
L 49.515625 63.28125 
L 33.984375 0 
L 21.578125 0 
z
" id="DejaVuSans-87"/>
      </defs>
      <g transform="translate(-27.7025 184.69114)scale(0.08 -0.08)">
       <use xlink:href="#DejaVuSans-87"/>
       <use x="98.783203" xlink:href="#DejaVuSans-97"/>
       <use x="160.0625" xlink:href="#DejaVuSans-114"/>
       <use x="201.175781" xlink:href="#DejaVuSans-32"/>
       <use x="232.962891" xlink:href="#DejaVuSans-105"/>
       <use x="260.746094" xlink:href="#DejaVuSans-110"/>
       <use x="324.125" xlink:href="#DejaVuSans-32"/>
       <use x="355.912109" xlink:href="#DejaVuSans-77"/>
       <use x="442.191406" xlink:href="#DejaVuSans-105"/>
       <use x="469.974609" xlink:href="#DejaVuSans-100"/>
       <use x="533.451172" xlink:href="#DejaVuSans-100"/>
       <use x="596.927734" xlink:href="#DejaVuSans-108"/>
       <use x="624.710938" xlink:href="#DejaVuSans-101"/>
       <use x="686.234375" xlink:href="#DejaVuSans-32"/>
       <use x="718.021484" xlink:href="#DejaVuSans-69"/>
       <use x="781.205078" xlink:href="#DejaVuSans-97"/>
       <use x="842.484375" xlink:href="#DejaVuSans-115"/>
       <use x="894.583984" xlink:href="#DejaVuSans-116"/>
      </g>
     </g>
    </g>
    <g id="ytick_13">
     <g id="line2d_21">
      <g>
       <use style="stroke:#000000;stroke-width:0.8;" x="54" xlink:href="#m790793d0e7" y="194.442353"/>
      </g>
     </g>
     <g id="text_22">
      <!-- Revenue and Share Price -->
      <defs>
       <path d="M 44.390625 34.1875 
Q 47.5625 33.109375 50.5625 29.59375 
Q 53.5625 26.078125 56.59375 19.921875 
L 66.609375 0 
L 56 0 
L 46.6875 18.703125 
Q 43.0625 26.03125 39.671875 28.421875 
Q 36.28125 30.8125 30.421875 30.8125 
L 19.671875 30.8125 
L 19.671875 0 
L 9.8125 0 
L 9.8125 72.90625 
L 32.078125 72.90625 
Q 44.578125 72.90625 50.734375 67.671875 
Q 56.890625 62.453125 56.890625 51.90625 
Q 56.890625 45.015625 53.6875 40.46875 
Q 50.484375 35.9375 44.390625 34.1875 
z
M 19.671875 64.796875 
L 19.671875 38.921875 
L 32.078125 38.921875 
Q 39.203125 38.921875 42.84375 42.21875 
Q 46.484375 45.515625 46.484375 51.90625 
Q 46.484375 58.296875 42.84375 61.546875 
Q 39.203125 64.796875 32.078125 64.796875 
z
" id="DejaVuSans-82"/>
       <path d="M 2.984375 54.6875 
L 12.5 54.6875 
L 29.59375 8.796875 
L 46.6875 54.6875 
L 56.203125 54.6875 
L 35.6875 0 
L 23.484375 0 
z
" id="DejaVuSans-118"/>
      </defs>
      <g transform="translate(-53.79 197.481728)scale(0.08 -0.08)">
       <use xlink:href="#DejaVuSans-82"/>
       <use x="69.419922" xlink:href="#DejaVuSans-101"/>
       <use x="130.943359" xlink:href="#DejaVuSans-118"/>
       <use x="190.123047" xlink:href="#DejaVuSans-101"/>
       <use x="251.646484" xlink:href="#DejaVuSans-110"/>
       <use x="315.025391" xlink:href="#DejaVuSans-117"/>
       <use x="378.404297" xlink:href="#DejaVuSans-101"/>
       <use x="439.927734" xlink:href="#DejaVuSans-32"/>
       <use x="471.714844" xlink:href="#DejaVuSans-97"/>
       <use x="532.994141" xlink:href="#DejaVuSans-110"/>
       <use x="596.373047" xlink:href="#DejaVuSans-100"/>
       <use x="659.849609" xlink:href="#DejaVuSans-32"/>
       <use x="691.636719" xlink:href="#DejaVuSans-83"/>
       <use x="755.113281" xlink:href="#DejaVuSans-104"/>
       <use x="818.492188" xlink:href="#DejaVuSans-97"/>
       <use x="879.771484" xlink:href="#DejaVuSans-114"/>
       <use x="920.853516" xlink:href="#DejaVuSans-101"/>
       <use x="982.376953" xlink:href="#DejaVuSans-32"/>
       <use x="1014.164062" xlink:href="#DejaVuSans-80"/>
       <use x="1074.451172" xlink:href="#DejaVuSans-114"/>
       <use x="1115.564453" xlink:href="#DejaVuSans-105"/>
       <use x="1143.347656" xlink:href="#DejaVuSans-99"/>
       <use x="1198.328125" xlink:href="#DejaVuSans-101"/>
      </g>
     </g>
    </g>
    <g id="ytick_14">
     <g id="line2d_22">
      <g>
       <use style="stroke:#000000;stroke-width:0.8;" x="54" xlink:href="#m790793d0e7" y="207.232941"/>
      </g>
     </g>
     <g id="text_23">
      <!-- Union Issues -->
      <defs>
       <path d="M 8.6875 72.90625 
L 18.609375 72.90625 
L 18.609375 28.609375 
Q 18.609375 16.890625 22.84375 11.734375 
Q 27.09375 6.59375 36.625 6.59375 
Q 46.09375 6.59375 50.34375 11.734375 
Q 54.59375 16.890625 54.59375 28.609375 
L 54.59375 72.90625 
L 64.5 72.90625 
L 64.5 27.390625 
Q 64.5 13.140625 57.4375 5.859375 
Q 50.390625 -1.421875 36.625 -1.421875 
Q 22.796875 -1.421875 15.734375 5.859375 
Q 8.6875 13.140625 8.6875 27.390625 
z
" id="DejaVuSans-85"/>
      </defs>
      <g transform="translate(-3.51 210.272316)scale(0.08 -0.08)">
       <use xlink:href="#DejaVuSans-85"/>
       <use x="73.193359" xlink:href="#DejaVuSans-110"/>
       <use x="136.572266" xlink:href="#DejaVuSans-105"/>
       <use x="164.355469" xlink:href="#DejaVuSans-111"/>
       <use x="225.537109" xlink:href="#DejaVuSans-110"/>
       <use x="288.916016" xlink:href="#DejaVuSans-32"/>
       <use x="320.703125" xlink:href="#DejaVuSans-73"/>
       <use x="350.195312" xlink:href="#DejaVuSans-115"/>
       <use x="402.294922" xlink:href="#DejaVuSans-115"/>
       <use x="454.394531" xlink:href="#DejaVuSans-117"/>
       <use x="517.773438" xlink:href="#DejaVuSans-101"/>
       <use x="579.296875" xlink:href="#DejaVuSans-115"/>
      </g>
     </g>
    </g>
    <g id="ytick_15">
     <g id="line2d_23">
      <g>
       <use style="stroke:#000000;stroke-width:0.8;" x="54" xlink:href="#m790793d0e7" y="220.023529"/>
      </g>
     </g>
     <g id="text_24">
      <!-- Major Paper Bankruptcies -->
      <defs>
       <path d="M 19.671875 34.8125 
L 19.671875 8.109375 
L 35.5 8.109375 
Q 43.453125 8.109375 47.28125 11.40625 
Q 51.125 14.703125 51.125 21.484375 
Q 51.125 28.328125 47.28125 31.5625 
Q 43.453125 34.8125 35.5 34.8125 
z
M 19.671875 64.796875 
L 19.671875 42.828125 
L 34.28125 42.828125 
Q 41.5 42.828125 45.03125 45.53125 
Q 48.578125 48.25 48.578125 53.8125 
Q 48.578125 59.328125 45.03125 62.0625 
Q 41.5 64.796875 34.28125 64.796875 
z
M 9.8125 72.90625 
L 35.015625 72.90625 
Q 46.296875 72.90625 52.390625 68.21875 
Q 58.5 63.53125 58.5 54.890625 
Q 58.5 48.1875 55.375 44.234375 
Q 52.25 40.28125 46.1875 39.3125 
Q 53.46875 37.75 57.5 32.78125 
Q 61.53125 27.828125 61.53125 20.40625 
Q 61.53125 10.640625 54.890625 5.3125 
Q 48.25 0 35.984375 0 
L 9.8125 0 
z
" id="DejaVuSans-66"/>
      </defs>
      <g transform="translate(-55.68625 223.062904)scale(0.08 -0.08)">
       <use xlink:href="#DejaVuSans-77"/>
       <use x="86.279297" xlink:href="#DejaVuSans-97"/>
       <use x="147.558594" xlink:href="#DejaVuSans-106"/>
       <use x="175.341797" xlink:href="#DejaVuSans-111"/>
       <use x="236.523438" xlink:href="#DejaVuSans-114"/>
       <use x="277.636719" xlink:href="#DejaVuSans-32"/>
       <use x="309.423828" xlink:href="#DejaVuSans-80"/>
       <use x="369.664062" xlink:href="#DejaVuSans-97"/>
       <use x="430.943359" xlink:href="#DejaVuSans-112"/>
       <use x="494.419922" xlink:href="#DejaVuSans-101"/>
       <use x="555.943359" xlink:href="#DejaVuSans-114"/>
       <use x="597.056641" xlink:href="#DejaVuSans-32"/>
       <use x="628.84375" xlink:href="#DejaVuSans-66"/>
       <use x="697.447266" xlink:href="#DejaVuSans-97"/>
       <use x="758.726562" xlink:href="#DejaVuSans-110"/>
       <use x="822.105469" xlink:href="#DejaVuSans-107"/>
       <use x="880.015625" xlink:href="#DejaVuSans-114"/>
       <use x="921.128906" xlink:href="#DejaVuSans-117"/>
       <use x="984.507812" xlink:href="#DejaVuSans-112"/>
       <use x="1047.984375" xlink:href="#DejaVuSans-116"/>
       <use x="1087.193359" xlink:href="#DejaVuSans-99"/>
       <use x="1142.173828" xlink:href="#DejaVuSans-105"/>
       <use x="1169.957031" xlink:href="#DejaVuSans-101"/>
       <use x="1231.480469" xlink:href="#DejaVuSans-115"/>
      </g>
     </g>
    </g>
    <g id="ytick_16">
     <g id="line2d_24">
      <g>
       <use style="stroke:#000000;stroke-width:0.8;" x="54" xlink:href="#m790793d0e7" y="232.814118"/>
      </g>
     </g>
     <g id="text_25">
      <!-- Wall Street &amp; WSJ -->
      <g transform="translate(-23.9475 235.853493)scale(0.08 -0.08)">
       <use xlink:href="#DejaVuSans-87"/>
       <use x="98.783203" xlink:href="#DejaVuSans-97"/>
       <use x="160.0625" xlink:href="#DejaVuSans-108"/>
       <use x="187.845703" xlink:href="#DejaVuSans-108"/>
       <use x="215.628906" xlink:href="#DejaVuSans-32"/>
       <use x="247.416016" xlink:href="#DejaVuSans-83"/>
       <use x="310.892578" xlink:href="#DejaVuSans-116"/>
       <use x="350.101562" xlink:href="#DejaVuSans-114"/>
       <use x="391.183594" xlink:href="#DejaVuSans-101"/>
       <use x="452.707031" xlink:href="#DejaVuSans-101"/>
       <use x="514.230469" xlink:href="#DejaVuSans-116"/>
       <use x="553.439453" xlink:href="#DejaVuSans-32"/>
       <use x="585.226562" xlink:href="#DejaVuSans-38"/>
       <use x="663.205078" xlink:href="#DejaVuSans-32"/>
       <use x="694.992188" xlink:href="#DejaVuSans-87"/>
       <use x="793.869141" xlink:href="#DejaVuSans-83"/>
       <use x="857.345703" xlink:href="#DejaVuSans-74"/>
      </g>
     </g>
    </g>
    <g id="ytick_17">
     <g id="line2d_25">
      <g>
       <use style="stroke:#000000;stroke-width:0.8;" x="54" xlink:href="#m790793d0e7" y="245.604706"/>
      </g>
     </g>
     <g id="text_26">
      <!-- Mergers &amp; Aquisitions -->
      <defs>
       <path d="M 14.796875 27.296875 
Q 14.796875 17.390625 18.875 11.75 
Q 22.953125 6.109375 30.078125 6.109375 
Q 37.203125 6.109375 41.296875 11.75 
Q 45.40625 17.390625 45.40625 27.296875 
Q 45.40625 37.203125 41.296875 42.84375 
Q 37.203125 48.484375 30.078125 48.484375 
Q 22.953125 48.484375 18.875 42.84375 
Q 14.796875 37.203125 14.796875 27.296875 
z
M 45.40625 8.203125 
Q 42.578125 3.328125 38.25 0.953125 
Q 33.9375 -1.421875 27.875 -1.421875 
Q 17.96875 -1.421875 11.734375 6.484375 
Q 5.515625 14.40625 5.515625 27.296875 
Q 5.515625 40.1875 11.734375 48.09375 
Q 17.96875 56 27.875 56 
Q 33.9375 56 38.25 53.625 
Q 42.578125 51.265625 45.40625 46.390625 
L 45.40625 54.6875 
L 54.390625 54.6875 
L 54.390625 -20.796875 
L 45.40625 -20.796875 
z
" id="DejaVuSans-113"/>
      </defs>
      <g transform="translate(-40.6175 248.644081)scale(0.08 -0.08)">
       <use xlink:href="#DejaVuSans-77"/>
       <use x="86.279297" xlink:href="#DejaVuSans-101"/>
       <use x="147.802734" xlink:href="#DejaVuSans-114"/>
       <use x="188.900391" xlink:href="#DejaVuSans-103"/>
       <use x="252.376953" xlink:href="#DejaVuSans-101"/>
       <use x="313.900391" xlink:href="#DejaVuSans-114"/>
       <use x="355.013672" xlink:href="#DejaVuSans-115"/>
       <use x="407.113281" xlink:href="#DejaVuSans-32"/>
       <use x="438.900391" xlink:href="#DejaVuSans-38"/>
       <use x="516.878906" xlink:href="#DejaVuSans-32"/>
       <use x="548.666016" xlink:href="#DejaVuSans-65"/>
       <use x="617.058594" xlink:href="#DejaVuSans-113"/>
       <use x="680.535156" xlink:href="#DejaVuSans-117"/>
       <use x="743.914062" xlink:href="#DejaVuSans-105"/>
       <use x="771.697266" xlink:href="#DejaVuSans-115"/>
       <use x="823.796875" xlink:href="#DejaVuSans-105"/>
       <use x="851.580078" xlink:href="#DejaVuSans-116"/>
       <use x="890.789062" xlink:href="#DejaVuSans-105"/>
       <use x="918.572266" xlink:href="#DejaVuSans-111"/>
       <use x="979.753906" xlink:href="#DejaVuSans-110"/>
       <use x="1043.132812" xlink:href="#DejaVuSans-115"/>
      </g>
     </g>
    </g>
   </g>
   <g id="line2d_26">
    <path clip-path="url(#p9153bf5f64)" d="M 0 0 
" style="fill:none;stroke:#424242;stroke-linecap:square;stroke-width:2.7;"/>
   </g>
   <g id="line2d_27">
    <path clip-path="url(#p9153bf5f64)" d="M 0 0 
" style="fill:none;stroke:#424242;stroke-linecap:square;stroke-width:2.7;"/>
   </g>
   <g id="line2d_28">
    <path clip-path="url(#p9153bf5f64)" d="M 0 0 
" style="fill:none;stroke:#424242;stroke-linecap:square;stroke-width:2.7;"/>
   </g>
   <g id="line2d_29">
    <path clip-path="url(#p9153bf5f64)" d="M 0 0 
" style="fill:none;stroke:#424242;stroke-linecap:square;stroke-width:2.7;"/>
   </g>
   <g id="line2d_30">
    <path clip-path="url(#p9153bf5f64)" d="M 0 0 
" style="fill:none;stroke:#424242;stroke-linecap:square;stroke-width:2.7;"/>
   </g>
   <g id="line2d_31">
    <path clip-path="url(#p9153bf5f64)" d="M 0 0 
" style="fill:none;stroke:#424242;stroke-linecap:square;stroke-width:2.7;"/>
   </g>
   <g id="line2d_32">
    <path clip-path="url(#p9153bf5f64)" d="M 0 0 
" style="fill:none;stroke:#424242;stroke-linecap:square;stroke-width:2.7;"/>
   </g>
   <g id="line2d_33">
    <path clip-path="url(#p9153bf5f64)" d="M 0 0 
" style="fill:none;stroke:#424242;stroke-linecap:square;stroke-width:2.7;"/>
   </g>
   <g id="line2d_34">
    <path clip-path="url(#p9153bf5f64)" d="M 0 0 
" style="fill:none;stroke:#424242;stroke-linecap:square;stroke-width:2.7;"/>
   </g>
   <g id="line2d_35">
    <path clip-path="url(#p9153bf5f64)" d="M 0 0 
" style="fill:none;stroke:#424242;stroke-linecap:square;stroke-width:2.7;"/>
   </g>
   <g id="line2d_36">
    <path clip-path="url(#p9153bf5f64)" d="M 0 0 
" style="fill:none;stroke:#424242;stroke-linecap:square;stroke-width:2.7;"/>
   </g>
   <g id="line2d_37">
    <path clip-path="url(#p9153bf5f64)" d="M 0 0 
" style="fill:none;stroke:#424242;stroke-linecap:square;stroke-width:2.7;"/>
   </g>
   <g id="line2d_38">
    <path clip-path="url(#p9153bf5f64)" d="M 0 0 
" style="fill:none;stroke:#424242;stroke-linecap:square;stroke-width:2.7;"/>
   </g>
   <g id="line2d_39">
    <path clip-path="url(#p9153bf5f64)" d="M 0 0 
" style="fill:none;stroke:#424242;stroke-linecap:square;stroke-width:2.7;"/>
   </g>
   <g id="line2d_40">
    <path clip-path="url(#p9153bf5f64)" d="M 0 0 
" style="fill:none;stroke:#424242;stroke-linecap:square;stroke-width:2.7;"/>
   </g>
   <g id="line2d_41">
    <path clip-path="url(#p9153bf5f64)" d="M 0 0 
" style="fill:none;stroke:#424242;stroke-linecap:square;stroke-width:2.7;"/>
   </g>
   <g id="line2d_42">
    <path clip-path="url(#p9153bf5f64)" d="M 0 0 
" style="fill:none;stroke:#424242;stroke-linecap:square;stroke-width:2.7;"/>
   </g>
   <g id="patch_20">
    <path d="M 54 252 
L 54 34.56 
" style="fill:none;stroke:#000000;stroke-linecap:square;stroke-linejoin:miter;stroke-width:0.8;"/>
   </g>
   <g id="patch_21">
    <path d="M 388.8 252 
L 388.8 34.56 
" style="fill:none;stroke:#000000;stroke-linecap:square;stroke-linejoin:miter;stroke-width:0.8;"/>
   </g>
   <g id="patch_22">
    <path d="M 54 252 
L 388.8 252 
" style="fill:none;stroke:#000000;stroke-linecap:square;stroke-linejoin:miter;stroke-width:0.8;"/>
   </g>
   <g id="patch_23">
    <path d="M 54 34.56 
L 388.8 34.56 
" style="fill:none;stroke:#000000;stroke-linecap:square;stroke-linejoin:miter;stroke-width:0.8;"/>
   </g>
  </g>
  <g id="text_27">
   <!-- Topic Distribution -->
   <g transform="translate(154.161563 16.397812)scale(0.14 -0.14)">
    <use xlink:href="#DejaVuSans-84"/>
    <use x="60.818359" xlink:href="#DejaVuSans-111"/>
    <use x="122" xlink:href="#DejaVuSans-112"/>
    <use x="185.476562" xlink:href="#DejaVuSans-105"/>
    <use x="213.259766" xlink:href="#DejaVuSans-99"/>
    <use x="268.240234" xlink:href="#DejaVuSans-32"/>
    <use x="300.027344" xlink:href="#DejaVuSans-68"/>
    <use x="377.029297" xlink:href="#DejaVuSans-105"/>
    <use x="404.8125" xlink:href="#DejaVuSans-115"/>
    <use x="456.912109" xlink:href="#DejaVuSans-116"/>
    <use x="496.121094" xlink:href="#DejaVuSans-114"/>
    <use x="537.234375" xlink:href="#DejaVuSans-105"/>
    <use x="565.017578" xlink:href="#DejaVuSans-98"/>
    <use x="628.494141" xlink:href="#DejaVuSans-117"/>
    <use x="691.873047" xlink:href="#DejaVuSans-116"/>
    <use x="731.082031" xlink:href="#DejaVuSans-105"/>
    <use x="758.865234" xlink:href="#DejaVuSans-111"/>
    <use x="820.046875" xlink:href="#DejaVuSans-110"/>
   </g>
  </g>
 </g>
 <defs>
  <clipPath id="p9153bf5f64">
   <rect height="217.44" width="334.8" x="54" y="34.56"/>
  </clipPath>
 </defs>
</svg>
